<svg xmlns="http://www.w3.org/2000/svg" viewBox="0 0 136 144"><g fill="none" stroke-width="2"><path stroke="#7b5b5c" d="M68.08 6.12c16.14.04 28.33 9.45 33.25 24.46a.5.5 0 0 0 .15.23l2.17 1.8a.42.42 0 0 0 .68-.42C100.2 14.64 86.11 3 68.09 2.94c-18.02-.05-32.18 11.51-36.41 29.04a.42.42 0 0 0 .68.42l2.18-1.78a.5.5 0 0 0 .16-.23c5-14.98 17.24-24.32 33.38-24.27" vector-effect="non-scaling-stroke"/><path stroke="#a6321c" d="M40.98 51.62q-.23 2.96-.33 6.36-.02.65-.87 1.48" vector-effect="non-scaling-stroke"/><path stroke="#a6513a" d="m39.78 59.46-1.69 1.24a1.06 1.04 74.1 0 0-.43.79c-.73 13.14-.7 26.47 2.31 39.27q.25 1.06 2.15 1.52" vector-effect="non-scaling-stroke"/><path stroke="#a6321c" d="m42.12 102.28 4.2 3.25a.41.4-69.5 0 0 .65-.3C47.8 92.81 57.49 84.46 70 85.08q11.6.57 17.58 11.56" vector-effect="non-scaling-stroke"/><path stroke="#96221a" d="m87.58 96.64 2.28 7.69a.53.53 0 0 0 .8.29l4.87-3.22a1.35 1.35 0 0 0 .55-.74q.89-3.03 1.17-4.9Q99 84 98.77 72.06a.34.34 0 0 0-.53-.28q-7.09 4.79-15.91 5.37a1.45 1.42 19.2 0 0-.94.44q-1.42 1.53-2.95 1.83-5.94 1.19-10.88-1.23" vector-effect="non-scaling-stroke"/><path stroke="#a6321c" d="M67.56 78.19q-2.55-3.63-.84-6.95c1.99-3.88 7.3-3 11.79-2.79q1.15.06 2.6 1.55a1.48 1.44-23.5 0 0 1.16.44q6.66-.44 11.97-4.13" vector-effect="non-scaling-stroke"/><path stroke="#96221a" d="M94.24 66.31q2.14-1.37 3.88-3.66a1.48 1.48 0 0 0-.5-2.21q-1.58-.81-2.36-2.94a2.48 2.34 36.2 0 1-.16-.86q-.01-9.35.23-12.4c.33-4.05-2.52-12.04-5.08-15.53" vector-effect="non-scaling-stroke"/><path stroke="#a6321c" d="m90.25 28.71-3.97-5.54" vector-effect="non-scaling-stroke"/><path stroke="#a6513a" d="M86.28 23.17q-8.58-8.91-20.19-7.92c-7.82.66-14.71 4.65-18.92 11.17q-5.24 8.13-6.29 14.96-.4 2.57.1 10.24" vector-effect="non-scaling-stroke"/><path stroke="#fb774d" d="M86.28 23.17q-2.65-1.55-5.19-2.94-3.21-1.76-5.49-2.23c-7.2-1.5-15.73-.68-21.55 4.37q-4.26 3.7-5.91 6.77-3.46 6.4-4.28 8.94-1.02 3.16-2.88 13.54" vector-effect="non-scaling-stroke"/><path stroke="#eb482d" d="m90.25 28.71 2.69 12.66a1.46.1 85.9 0 1 .02.15q.23 2.4.4 4.85c.14 1.96 1.62 4.62 1.32 7.63q-.62 6.08-.44 12.31M67.56 78.19q.94 4.45 5.95 4.36 2.61-.05 5.3-.13a1.69 1.67-60.9 0 0 .75-.22l2.01-1.16a1.89 1.81-64.7 0 1 .55-.21l10.41-2.21a.33.33 0 0 1 .39.36q-.9 9.2-5.34 17.66" vector-effect="non-scaling-stroke"/><path stroke="#fb774d" d="M42.12 102.28q-2.47-10.1-2.65-22.03-.18-11.63.77-20.64a.2.19-74 0 0-.1-.19q-.17-.1-.36.04" vector-effect="non-scaling-stroke"/><path stroke="#553336" d="m97.87 36.89.07 14.14" vector-effect="non-scaling-stroke"/><path stroke="#49282c" d="M97.94 51.03q-.28 3.28.25 5.98a1.82 1.81-19.8 0 0 2.65 1.24c1.72-.95 1.33-4.33 1.26-6.03" vector-effect="non-scaling-stroke"/><path stroke="#553336" d="m102.1 52.22.09-14.43" vector-effect="non-scaling-stroke"/><path stroke="#7b5b5c" d="M102.19 37.79q.14-2.58-.5-3.54a2.01 2.01 0 0 0-2.69-.63q-1.48.87-1.13 3.27" vector-effect="non-scaling-stroke"/><path stroke="#7f8389" d="m102.19 37.79-1.73-1.87a.74.73 45.3 0 0-1.06-.01q-.89.93-1.53.98" vector-effect="non-scaling-stroke"/><path stroke="#4d5059" d="m102.1 52.22-4.16-1.19" vector-effect="non-scaling-stroke"/><path stroke="#553336" d="m33.92 35.51-.01 16.23" vector-effect="non-scaling-stroke"/><path stroke="#49282c" d="M33.91 51.74v4.63a2.08 2.07-88.9 0 0 1.99 2.08h.12a2 1.93 1.6 0 0 2.09-1.91l.04-7.07" vector-effect="non-scaling-stroke"/><path stroke="#553336" d="m38.15 49.47.04-12.58" vector-effect="non-scaling-stroke"/><path stroke="#7b5b5c" d="M38.19 36.89c.27-4.12-3.92-4.65-4.27-1.38" vector-effect="non-scaling-stroke"/><path stroke="#7f8389" d="M38.19 36.89q-.79-.27-1.64-.93a.73.73 0 0 0-.97.05l-.93.92a.39.39 0 0 1-.65-.16q-.17-.6-.08-1.26" vector-effect="non-scaling-stroke"/><path stroke="#4d5059" d="M38.15 49.47c.25 2.14-2.46 3.34-4.24 2.27" vector-effect="non-scaling-stroke"/><path stroke="#a6321c" d="m25.92 43.67.01 6.05" vector-effect="non-scaling-stroke"/><path stroke="#96221a" d="M25.93 49.72q-.31 3.68 3.93 5.98a.99.99 0 0 0 1.46-.86l.03-4.33" vector-effect="non-scaling-stroke"/><path stroke="#a6321c" d="m31.35 50.51.05-12.73" vector-effect="non-scaling-stroke"/><path stroke="#a6513a" d="M31.4 37.78q-.03-1.92-.66-1.75-5.49 1.43-4.82 7.64" vector-effect="non-scaling-stroke"/><path stroke="#fb774d" d="M31.4 37.78q-3.89 1.34-5.48 5.89" vector-effect="non-scaling-stroke"/><path stroke="#eb482d" d="M31.35 50.51q.12.79-.03 1.24a.63.63 0 0 1-.9.36l-4.49-2.39" vector-effect="non-scaling-stroke"/><path stroke="#a6321c" d="m104.57 37.98.05 14.13" vector-effect="non-scaling-stroke"/><path stroke="#96221a" d="M104.62 52.11v3.35a.5.5 0 0 0 .62.48q5.63-1.45 4.86-7.46" vector-effect="non-scaling-stroke"/><path stroke="#a6321c" d="M110.1 48.48q.38-2.96-.1-4.8" vector-effect="non-scaling-stroke"/><path stroke="#a6513a" d="M110 43.68q1.05-6.03-4.77-7.68-.65-.19-.66 1.98" vector-effect="non-scaling-stroke"/><path stroke="#fb774d" d="M110 43.68q-1.26-4.66-5.43-5.7" vector-effect="non-scaling-stroke"/><path stroke="#eb482d" d="M110.1 48.48q.17 1.34-1.48 2.19-1.47.75-4 1.44" vector-effect="non-scaling-stroke"/><path stroke="#7b5b5c" d="M104.47 58.81q-1.39.82-2.06 1.93-6.54 10.88-19.56 12a.34.34 0 0 0-.31.37l.14 1.39a.11.11 0 0 0 .12.1q15.84-1.47 22.29-15.24a.44.43-3.1 0 0-.62-.55" vector-effect="non-scaling-stroke"/><path stroke="#553336" d="M68.83 73.3q-.29 1.06-.37.46" vector-effect="non-scaling-stroke"/><path stroke="#49282c" d="M68.46 73.76q.08 2.88 2.27 3.38 1.41.31 6.26.27a2.18 2.03-55.6 0 0 .89-.2q3.06-1.43 2.02-4.38" vector-effect="non-scaling-stroke"/><path stroke="#553336" d="m79.9 72.83-.35-.83" vector-effect="non-scaling-stroke"/><path stroke="#7b5b5c" d="M79.55 72q-.9-1.27-2.8-1.29c-2.54-.03-8.03-.73-7.92 2.59" vector-effect="non-scaling-stroke"/><path stroke="#7f8389" d="M79.55 72q.22.35-.21.43a.45.42 46.8 0 1-.16-.01q-5.78-1.85-10.35.88" vector-effect="non-scaling-stroke"/><path stroke="#4d5059" d="M79.9 72.83q-4.2 3.61-11.44.93" vector-effect="non-scaling-stroke"/><path stroke="#a6321c" d="m108.79 82.05 4.16-3.16" vector-effect="non-scaling-stroke"/><path stroke="#a6513a" d="m112.95 78.89 2.5-.28a.32.32 0 0 0 .14-.58q-5.05-3.26-11.12-4.1" vector-effect="non-scaling-stroke"/><path stroke="#96221a" d="M104.47 73.93q-.99-.48-2.13-.53a.66.66 0 0 0-.69.66v6.84a1.15 1.13-70.5 0 0 .41.88l4.28 3.55a.46.46 0 0 0 .7-.13l1.75-3.15" vector-effect="non-scaling-stroke"/><path stroke="#eb674b" d="M104.47 73.93q-.42.57.07 1.44" vector-effect="non-scaling-stroke"/><path stroke="#eb482d" d="M104.54 75.37c-1.52 3.47 1.97 5.02 4.25 6.68" vector-effect="non-scaling-stroke"/><path stroke="#fb774d" d="m112.95 78.89-8.41-3.52" vector-effect="non-scaling-stroke"/><path stroke="#a6513a" d="M31.97 73.78q-6.22.94-11.52 4.19a.36.36 0 0 0 .14.66l2.43.32" vector-effect="non-scaling-stroke"/><path stroke="#a6321c" d="m23.02 78.95 3.89 2.7" vector-effect="non-scaling-stroke"/><path stroke="#96221a" d="m26.91 81.65 2.26 3.68a.56.56 0 0 0 .87.1l4.24-4.24a.22.18-28.8 0 0 .05-.13v-6.82a.7.69-85.7 0 0-.59-.69q-.84-.12-1.77.23" vector-effect="non-scaling-stroke"/><path stroke="#eb482d" d="M26.91 81.65q2.13-.8 4.27-2.48 2.43-1.9.6-3.72" vector-effect="non-scaling-stroke"/><path stroke="#eb674b" d="M31.78 75.45q.6-1.24.19-1.67" vector-effect="non-scaling-stroke"/><path stroke="#fb774d" d="m31.78 75.45-8.76 3.5" vector-effect="non-scaling-stroke"/><path stroke="#a6321c" d="M12.84 90.94q5.52-1.81 10.69-1.4" vector-effect="non-scaling-stroke"/><path stroke="#96221a" d="m23.53 89.54 3.34.72a.37.37 0 0 0 .45-.4q-.33-2.93-2.01-5.35" vector-effect="non-scaling-stroke"/><path stroke="#a6321c" d="M25.31 84.51q-2.22-3.03-4.35-2.83" vector-effect="non-scaling-stroke"/><path stroke="#a6513a" d="M20.96 81.68c-5.13-.55-9.29 6.06-10.8 10.13a.31.31 0 0 0 .44.38l2.24-1.25" vector-effect="non-scaling-stroke"/><path stroke="#fb774d" d="M20.96 81.68q-6.16 3.75-8.12 9.26" vector-effect="non-scaling-stroke"/><path stroke="#eb482d" d="M25.31 84.51q-1.85 2.31-1.78 5.03" vector-effect="non-scaling-stroke"/><path stroke="#a6321c" d="M114.45 81.81q-1.58.06-3.01 1.91" vector-effect="non-scaling-stroke"/><path stroke="#96221a" d="M111.44 83.72q-2.44 2.62-2.57 5.93a.45.44 87.3 0 0 .5.46l3.93-.53" vector-effect="non-scaling-stroke"/><path stroke="#a6321c" d="M113.3 89.58q4.43-.37 8.74 1.02" vector-effect="non-scaling-stroke"/><path stroke="#a6513a" d="m122.04 90.6 3.29 1.33a.34.33 89.5 0 0 .43-.44c-1.78-4.27-6-11.08-11.31-9.68" vector-effect="non-scaling-stroke"/><path stroke="#fb774d" d="M122.04 90.6q.36-1.84-1.36-3.79-3.07-3.49-6.23-5" vector-effect="non-scaling-stroke"/><path stroke="#eb482d" d="m113.3 89.58-1.86-5.86" vector-effect="non-scaling-stroke"/><path stroke="#a84731" d="M68.43 99.06q8.54.01 15.74-2.66a.37.36 63.6 0 0 .18-.55c-3.66-5.66-9.23-8.61-15.92-8.62-6.68 0-12.25 2.94-15.92 8.6a.37.36-63.5 0 0 .18.54q7.19 2.68 15.74 2.69" vector-effect="non-scaling-stroke"/><path stroke="#a6321c" d="M12.67 132.41q4.97 5.07 12.79 7.36 7.57 2.22 15.28 1.04 1.54-.24 2.39-1.18a1.53 1.34 36.3 0 0-.48-2.17c-12.91-7.85-18.91-23.07-7.52-35.43a1.1 1.06 63 0 0 .27-.88q-.3-2.12-1.76-2.91" vector-effect="non-scaling-stroke"/><path stroke="#a6513a" d="M33.64 98.24q-4.43-5.33-10.63-5.76c-12.54-.89-20.75 8.46-19.48 21q1.12 11.06 9.14 18.93" vector-effect="non-scaling-stroke"/><path stroke="#fb774d" d="M33.64 98.24q-10.67-7.13-20.51-.9c-2.67 1.69-3.24 3.37-5.23 6.05a3.02 2.97 72.8 0 0-.43.83q-3.83 11.39 1.36 21.79a3.04 2.96-80.3 0 0 .51.74q2.39 2.6 3.33 5.66" vector-effect="non-scaling-stroke"/><path stroke="#a6321c" d="M102.14 103.5q4.57 5.39 4.74 12.01.28 10.72-8.41 17.96-2.61 2.17-5.44 4.53" vector-effect="non-scaling-stroke"/><path stroke="#96221a" d="M93.03 138q-.32.42-.28.94.02.45.49.78 1.38 1.01 2.97 1.22c17.75 2.33 34.08-8.73 36.17-26.91q1.25-10.89-5.93-17.68" vector-effect="non-scaling-stroke"/><path stroke="#a6321c" d="M126.45 96.35q-3.2-2.41-4.72-2.47" vector-effect="non-scaling-stroke"/><path stroke="#a6513a" d="M121.73 93.88q-10.19-3.97-18.25 2.84-2.01 1.7-2.79 4.21a.93.91-55.7 0 0 .15.85l1.3 1.72" vector-effect="non-scaling-stroke"/><path stroke="#fb774d" d="M121.73 93.88q-11.21-.66-17.26 5.85-.74.8-2.33 3.77" vector-effect="non-scaling-stroke"/><path stroke="#eb482d" d="M126.45 96.35q.17 1.96 1.19 6.83 1.77 8.42-3.08 17.14-8.89 16.01-27.89 17.26a3.15 3.06 28.8 0 0-1.24.34q-1.9 1-2.4.08" vector-effect="non-scaling-stroke"/><path stroke="#a6321c" d="m78.45 109.04 8.48-2.87a.76.76 0 0 0 .52-.68q.16-2.65-1.1-5.3" vector-effect="non-scaling-stroke"/><path stroke="#a84731" d="M86.35 100.19q.02-.97-.36-1.49a.77.76-27 0 0-.88-.28q-16.72 5.94-33.22.01a.96.96 0 0 0-1.26.68l-1.33 5.65a1.27 1.26-72.2 0 0 .74 1.45c9.42 3.94 18.42 4.13 28.41 2.83" vector-effect="non-scaling-stroke"/><path stroke="#fd6e44" d="m86.35 100.19-.92.17a.94.93 6.9 0 0-.67.52c-1.61 3.56-4.24 5.25-7.82 7.78a.25.24 31.3 0 0 .11.44q.68.1 1.4-.06" vector-effect="non-scaling-stroke"/><path stroke="#a6321c" d="M85.67 123.12q-.64 1.71.48 5.25a1.03 1.02 49.4 0 0 1.9.15l1.33-2.7" vector-effect="non-scaling-stroke"/><path stroke="#96221a" d="M89.38 125.82c2.25-2.24 4.37-4.65 6.99-6.14q3.28-1.87 6.78-2.58a.88.87-6.2 0 0 .71-.88q-.07-3.58-.78-5.01" vector-effect="non-scaling-stroke"/><path stroke="#a6321c" d="M103.08 111.21q-1.63-4.25-3.32-5.92" vector-effect="non-scaling-stroke"/><path stroke="#a6513a" d="M99.76 105.29q-.59-1.08-1.14-1.48a.94.94 0 0 0-.95-.08q-11.97 5.92-12 19.39" vector-effect="non-scaling-stroke"/><path stroke="#fb774d" d="M99.76 105.29q-4.83 1.6-7.5 4.72-4.2 4.9-6.59 13.11" vector-effect="non-scaling-stroke"/><path stroke="#eb482d" d="M103.08 111.21q-6.43 3.17-10.86 8.23a4.17 4.14-13.8 0 0-.72 1.18l-2.12 5.2" vector-effect="non-scaling-stroke"/><path stroke="#a6321c" d="M36.45 105.06q-2.29 2.68-3.81 6.62" vector-effect="non-scaling-stroke"/><path stroke="#96221a" d="m32.64 111.68-.53 4.75a.57.56-81.2 0 0 .45.62q7.27 1.35 13.18 7.45" vector-effect="non-scaling-stroke"/><path stroke="#a6321c" d="m45.74 124.5 2.43 4.21a.87.87 0 0 0 1.56-.12q.95-2.43.85-4.94" vector-effect="non-scaling-stroke"/><path stroke="#a6513a" d="M50.58 123.65q-.16-13.94-12.43-19.79-.83-.39-1.7 1.2" vector-effect="non-scaling-stroke"/><path stroke="#fb774d" d="m50.58 123.65-2.64-7.25a7.36 7.23 19.3 0 0-.73-1.48l-2.61-4.04a2.73 2.51 8.9 0 0-.27-.34q-3.28-3.4-7.88-5.48" vector-effect="non-scaling-stroke"/><path stroke="#eb482d" d="M45.74 124.5q-2.37-9.51-13.1-12.82" vector-effect="non-scaling-stroke"/><path stroke="#a6321c" d="M67.89 118.9q7.4.07 14.9-2.74a1.56 1.56 0 0 0 .91-.94q1.24-3.54 3.26-6.1a.34.34 0 0 0-.4-.51c-5.77 2.57-12.49 3.58-18.6 3.53-6.11-.06-12.82-1.21-18.53-3.89a.34.34 0 0 0-.42.5q1.97 2.6 3.15 6.16a1.56 1.56 0 0 0 .89.96q7.44 2.96 14.84 3.03" vector-effect="non-scaling-stroke"/><path stroke="#fb774d" d="M65.372 20.185a1.8 1.07-21.7 0 0-2.068-.33 1.8 1.07-21.7 0 0-1.276 1.66 1.8 1.07-21.7 0 0 2.068.33 1.8 1.07-21.7 0 0 1.276-1.66m-5.593 2.072a3.13 1.68-30.8 0 0-3.55.16 3.13 1.68-30.8 0 0-1.828 3.046 3.13 1.68-30.8 0 0 3.55-.16 3.13 1.68-30.8 0 0 1.828-3.046" vector-effect="non-scaling-stroke"/><path stroke="#a6321c" d="M53.24 30.09c-1.26.39-3.41 1.46-3.75 2.99a1.02 1.02 0 0 0 1.54 1.07c.96-.62 1.98-1.42 2.94-1.71.93-.29 2.23-.2 3.37-.23a1.02 1.02 0 0 0 .67-1.75c-1.13-1.08-3.51-.76-4.77-.37m29.55 0c-1.27-.36-3.64-.64-4.75.45a1.01 1.01 0 0 0 .7 1.74c1.14 0 2.42-.11 3.38.17.94.27 1.97 1.04 2.94 1.64a1.01 1.01 0 0 0 1.51-1.1c-.36-1.51-2.52-2.54-3.78-2.9M55.255 37.4a6.11 4.64-89.2 0 0-4.724 6.045 6.11 4.64-89.2 0 0 4.554 6.174 6.11 4.64-89.2 0 0 4.724-6.044 6.11 4.64-89.2 0 0-4.554-6.174m25.668.039a6.09 4.64-89.6 0 0-4.683 6.058 6.09 4.64-89.6 0 0 4.598 6.122 6.09 4.64-89.6 0 0 4.682-6.058 6.09 4.64-89.6 0 0-4.597-6.122" vector-effect="non-scaling-stroke"/><path stroke="#fd6e44" d="M43.962 52.477A4.22 2.56-178.2 0 0 48.1 55.17a4.22 2.56-178.2 0 0 4.298-2.426 4.22 2.56-178.2 0 0-4.138-2.692 4.22 2.56-178.2 0 0-4.298 2.426m39.759.032a4.2 2.49-178.5 0 0 4.134 2.6 4.2 2.49-178.5 0 0 4.264-2.38 4.2 2.49-178.5 0 0-4.134-2.6 4.2 2.49-178.5 0 0-4.264 2.38" vector-effect="non-scaling-stroke"/><path stroke="#a6321c" d="M68.01 63.42q6.36-.01 11.71-4.07a1.05 1.05 0 0 1 1.04-.12q.86.37 1.05.32a1.17 1.17 0 0 0 .8-1.64q-1.14-2.39-3.39-3.04a.84.84 0 0 0-1.05.98l.21.98a.8.79-25.1 0 1-.29.79q-4.19 3.22-10.08 3.23t-10.09-3.19a.8.79 24.8 0 1-.3-.79l.21-.98a.84.84 0 0 0-1.06-.98q-2.24.66-3.37 3.06a1.17 1.17 0 0 0 .8 1.64q.19.04 1.05-.33a1.05 1.05 0 0 1 1.05.12q5.36 4.03 11.71 4.02" vector-effect="non-scaling-stroke"/><path stroke="#7b5b5c" d="M58.01 41.02a1.54 1.54 0 0 0-1.54-1.54 1.54 1.54 0 0 0-1.54 1.54 1.54 1.54 0 0 0 1.54 1.54 1.54 1.54 0 0 0 1.54-1.54m25.7-.01a1.56 1.56 0 0 0-1.56-1.56 1.56 1.56 0 0 0-1.56 1.56 1.56 1.56 0 0 0 1.56 1.56 1.56 1.56 0 0 0 1.56-1.56" vector-effect="non-scaling-stroke"/><path stroke="#fb774d" d="M116.715 99.24a3.86 2.66-17.8 0 0-4.488-1.353 3.86 2.66-17.8 0 0-2.862 3.713 3.86 2.66-17.8 0 0 4.488 1.353 3.86 2.66-17.8 0 0 2.862-3.713" vector-effect="non-scaling-stroke"/><path stroke="#fd6e44" d="M119.36 99.12q-.5.57-.23 1.4a.79.76-36.5 0 0 1.38.18q.66-.9.1-1.5a.9.79 44.9 0 0-1.25-.08" vector-effect="non-scaling-stroke"/><path stroke="#fb774d" d="m11.49 113.72 2.38-10.06a.54.54 0 0 0-.4-.65l-.5-.12a3.87 2.77-76.7 0 0-3.59 3.13l-.84 3.58a3.87 2.77-76.7 0 0 1.8 4.4l.5.12a.54.54 0 0 0 .65-.4m-.74 2.65a1.8 1.27-107.1 0 0-.684 2.093 1.8 1.27-107.1 0 0 1.743 1.347 1.8 1.27-107.1 0 0 .685-2.093 1.8 1.27-107.1 0 0-1.743-1.347" vector-effect="non-scaling-stroke"/></g><path fill="#510b09" d="M34.25 69.73v-8.55a1.35 1.35 0 0 0-.9-1.27c-4.6-1.62-9.61-2.72-10.29-8.83q-.75-6.71-.19-10.6c.53-3.65 2.79-4.62 5.18-6.83a1.91 1.85 74.9 0 0 .56-1.01C31.68 17.06 43.16 4.6 58.68 1.36c22.6-4.72 44.18 8.2 48.69 30.93a2.55 2.49 14.8 0 0 .87 1.46c2.42 2 4.27 3.65 4.79 6.98q.62 4.02.11 9.74c-.34 3.86-2 5.51-4.7 7.83a1.02.91-8 0 0-.17.2l-6.01 10.41a1.13 1.13 0 0 0 .81 1.68c4.33.62 8.83 2.18 13.04 4.48q1.73.95 4.55 4.56c3.15 4.03 6.23 6.58 8.19 12.33 2.19 6.45 6.78 10.75 6.6 18.81-.31 13.6-8.36 25.67-20.89 30.74q-8.15 3.29-18.99 1.88-2.54-.33-4.7-1.96c-2.13-1.59-.69-5.13.97-6.34 5.34-3.91 9.84-7.56 11.46-14.3a.55.55 0 0 0-.67-.67q-4.97 1.22-8.63 4.86c-1.4 1.38-2.37 3.36-3.76 5.49a2.05 2.02-84.2 0 1-.94.78c-7.19 2.97-6.95-7.45-6.59-11.25a.58.58 0 0 0-.76-.61q-10.05 3.51-20.3 1.68-5.25-.93-7.63-1.75a.55.54-84.1 0 0-.72.59c.34 2.49.56 9.77-2.38 11.14-2.19 1.01-4.62.82-5.88-1.55-.57-1.07-1.73-3.51-2.67-4.39q-3.75-3.53-9.26-5.03a.4.39.9 0 0-.49.47c1.51 6.09 5.43 10.38 10.64 13.77q2.44 1.58 2.89 3.32c1.12 4.33-2.73 5.42-6.4 5.88-19.06 2.4-34.72-8.3-38.64-27.35Q-1.12 105.4 5.17 96.8a7.81 7.64 70.9 0 0 1.22-2.58c1.27-4.84 3.3-8.73 6.9-12.33q2.31-2.3 4.27-5.08a3.75 3.68.6 0 1 1.01-.97q6.38-4.17 14.99-5.32a.81.8-4.2 0 0 .69-.79M68.08 6.12c16.14.04 28.33 9.45 33.25 24.46a.5.5 0 0 0 .15.23l2.17 1.8a.42.42 0 0 0 .68-.42C100.2 14.64 86.11 3 68.09 2.94c-18.02-.05-32.18 11.51-36.41 29.04a.42.42 0 0 0 .68.42l2.18-1.78a.5.5 0 0 0 .16-.23c5-14.98 17.24-24.32 33.38-24.27m.03 6.21c13.47.04 22.23 8.39 27.44 20.02a.68.68 0 0 0 1.14.16l.87-1.05a1.73 1.71 55.9 0 0 .31-1.64q-3.86-11.79-14.74-17.44c-5.1-2.65-9.29-3.2-15.01-3.22-5.73-.01-9.92.52-15.03 3.14q-10.91 5.6-14.83 17.37a1.73 1.71-55.7 0 0 .3 1.65l.87 1.05a.68.68 0 0 0 1.14-.15c5.26-11.6 14.07-19.92 27.54-19.89M40.98 51.62q-.23 2.96-.33 6.36-.02.65-.87 1.48l-1.69 1.24a1.06 1.04 74.1 0 0-.43.79c-.73 13.14-.7 26.47 2.31 39.27q.25 1.06 2.15 1.52l4.2 3.25a.41.4-69.5 0 0 .65-.3C47.8 92.81 57.49 84.46 70 85.08q11.6.57 17.58 11.56l2.28 7.69a.53.53 0 0 0 .8.29l4.87-3.22a1.35 1.35 0 0 0 .55-.74q.89-3.03 1.17-4.9Q99 84 98.77 72.06a.34.34 0 0 0-.53-.28q-7.09 4.79-15.91 5.37a1.45 1.42 19.2 0 0-.94.44q-1.42 1.53-2.95 1.83-5.94 1.19-10.88-1.23-2.55-3.63-.84-6.95c1.99-3.88 7.3-3 11.79-2.79q1.15.06 2.6 1.55a1.48 1.44-23.5 0 0 1.16.44q6.66-.44 11.97-4.13 2.14-1.37 3.88-3.66a1.48 1.48 0 0 0-.5-2.21q-1.58-.81-2.36-2.94a2.48 2.34 36.2 0 1-.16-.86q-.01-9.35.23-12.4c.33-4.05-2.52-12.04-5.08-15.53l-3.97-5.54q-8.58-8.91-20.19-7.92c-7.82.66-14.71 4.65-18.92 11.17q-5.24 8.13-6.29 14.96-.4 2.57.1 10.24m56.89-14.73.07 14.14q-.28 3.28.25 5.98a1.82 1.81-19.8 0 0 2.65 1.24c1.72-.95 1.33-4.33 1.26-6.03l.09-14.43q.14-2.58-.5-3.54a2.01 2.01 0 0 0-2.69-.63q-1.48.87-1.13 3.27m-63.95-1.38-.01 16.23v4.63a2.08 2.07-88.9 0 0 1.99 2.08h.12a2 1.93 1.6 0 0 2.09-1.91l.04-7.07.04-12.58c.27-4.12-3.92-4.65-4.27-1.38m-8 8.16.01 6.05q-.31 3.68 3.93 5.98a.99.99 0 0 0 1.46-.86l.03-4.33.05-12.73q-.03-1.92-.66-1.75-5.49 1.43-4.82 7.64m78.65-5.69.05 14.13v3.35a.5.5 0 0 0 .62.48q5.63-1.45 4.86-7.46.38-2.96-.1-4.8 1.05-6.03-4.77-7.68-.65-.19-.66 1.98m-.1 20.83q-1.39.82-2.06 1.93-6.54 10.88-19.56 12a.34.34 0 0 0-.31.37l.14 1.39a.11.11 0 0 0 .12.1q15.84-1.47 22.29-15.24a.44.43-3.1 0 0-.62-.55M68.83 73.3q-.29 1.06-.37.46.08 2.88 2.27 3.38 1.41.31 6.26.27a2.18 2.03-55.6 0 0 .89-.2q3.06-1.43 2.02-4.38l-.35-.83q-.9-1.27-2.8-1.29c-2.54-.03-8.03-.73-7.92 2.59m39.96 8.75 4.16-3.16 2.5-.28a.32.32 0 0 0 .14-.58q-5.05-3.26-11.12-4.1-.99-.48-2.13-.53a.66.66 0 0 0-.69.66v6.84a1.15 1.13-70.5 0 0 .41.88l4.28 3.55a.46.46 0 0 0 .7-.13zm-76.82-8.27q-6.22.94-11.52 4.19a.36.36 0 0 0 .14.66l2.43.32 3.89 2.7 2.26 3.68a.56.56 0 0 0 .87.1l4.24-4.24a.22.18-28.8 0 0 .05-.13v-6.82a.7.69-85.7 0 0-.59-.69q-.84-.12-1.77.23M12.84 90.94q5.52-1.81 10.69-1.4l3.34.72a.37.37 0 0 0 .45-.4q-.33-2.93-2.01-5.35-2.22-3.03-4.35-2.83c-5.13-.55-9.29 6.06-10.8 10.13a.31.31 0 0 0 .44.38zm101.61-9.13q-1.58.06-3.01 1.91-2.44 2.62-2.57 5.93a.45.44 87.3 0 0 .5.46l3.93-.53q4.43-.37 8.74 1.02l3.29 1.33a.34.33 89.5 0 0 .43-.44c-1.78-4.27-6-11.08-11.31-9.68m-79.21 13.4a.29.29 0 0 0 .48-.25l-.91-9.16a.54.54 0 0 0-.86-.38q-2.22 1.69-3.17 3.53a2.5 2.49-56.5 0 0 .62 3.07zm65.61-.04 3.84-3.08a2.46 2.45 57.5 0 0 .67-3.02q-.91-1.83-3.07-3.53a.53.53 0 0 0-.86.36l-1.05 9.02a.29.29 0 0 0 .47.25m-32.42 3.89q8.54.01 15.74-2.66a.37.36 63.6 0 0 .18-.55c-3.66-5.66-9.23-8.61-15.92-8.62-6.68 0-12.25 2.94-15.92 8.6a.37.36-63.5 0 0 .18.54q7.19 2.68 15.74 2.69m-55.76 33.35q4.97 5.07 12.79 7.36 7.57 2.22 15.28 1.04 1.54-.24 2.39-1.18a1.53 1.34 36.3 0 0-.48-2.17c-12.91-7.85-18.91-23.07-7.52-35.43a1.1 1.06 63 0 0 .27-.88q-.3-2.12-1.76-2.91-4.43-5.33-10.63-5.76c-12.54-.89-20.75 8.46-19.48 21q1.12 11.06 9.14 18.93m89.47-28.91q4.57 5.39 4.74 12.01.28 10.72-8.41 17.96-2.61 2.17-5.44 4.53-.32.42-.28.94.02.45.49.78 1.38 1.01 2.97 1.22c17.75 2.33 34.08-8.73 36.17-26.91q1.25-10.89-5.93-17.68-3.2-2.41-4.72-2.47-10.19-3.97-18.25 2.84-2.01 1.7-2.79 4.21a.93.91-55.7 0 0 .15.85zm-23.69 5.54 8.48-2.87a.76.76 0 0 0 .52-.68q.16-2.65-1.1-5.3.02-.97-.36-1.49a.77.76-27 0 0-.88-.28q-16.72 5.94-33.22.01a.96.96 0 0 0-1.26.68l-1.33 5.65a1.27 1.26-72.2 0 0 .74 1.45c9.42 3.94 18.42 4.13 28.41 2.83m7.22 14.08q-.64 1.71.48 5.25a1.03 1.02 49.4 0 0 1.9.15l1.33-2.7c2.25-2.24 4.37-4.65 6.99-6.14q3.28-1.87 6.78-2.58a.88.87-6.2 0 0 .71-.88q-.07-3.58-.78-5.01-1.63-4.25-3.32-5.92-.59-1.08-1.14-1.48a.94.94 0 0 0-.95-.08q-11.97 5.92-12 19.39m-49.22-18.06q-2.29 2.68-3.81 6.62l-.53 4.75a.57.56-81.2 0 0 .45.62q7.27 1.35 13.18 7.45l2.43 4.21a.87.87 0 0 0 1.56-.12q.95-2.43.85-4.94-.16-13.94-12.43-19.79-.83-.39-1.7 1.2m31.44 13.84q7.4.07 14.9-2.74a1.56 1.56 0 0 0 .91-.94q1.24-3.54 3.26-6.1a.34.34 0 0 0-.4-.51c-5.77 2.57-12.49 3.58-18.6 3.53-6.11-.06-12.82-1.21-18.53-3.89a.34.34 0 0 0-.42.5q1.97 2.6 3.15 6.16a1.56 1.56 0 0 0 .89.96q7.44 2.96 14.84 3.03"/><path fill="#a5abae" d="M68.09 2.94c18.02.06 32.11 11.7 36.24 29.25a.42.42 0 0 1-.68.42l-2.17-1.8a.5.5 0 0 1-.15-.23C96.41 15.57 84.22 6.16 68.08 6.12 51.94 6.07 39.7 15.41 34.7 30.39a.5.5 0 0 1-.16.23l-2.18 1.78a.42.42 0 0 1-.68-.42C35.91 14.45 50.07 2.89 68.09 2.94"/><path fill="#fb966b" d="M86.28 23.17q-2.65-1.55-5.19-2.94-3.21-1.76-5.49-2.23c-7.2-1.5-15.73-.68-21.55 4.37q-4.26 3.7-5.91 6.77-3.46 6.4-4.28 8.94-1.02 3.16-2.88 13.54-.5-7.67-.1-10.24 1.05-6.83 6.29-14.96c4.21-6.52 11.1-10.51 18.92-11.17q11.61-.99 20.19 7.92"/><path fill="#fb582f" d="m86.28 23.17 3.97 5.54 2.69 12.66a1.46.1 85.9 0 1 .02.15q.23 2.4.4 4.85c.14 1.96 1.62 4.62 1.32 7.63q-.62 6.08-.44 12.31-5.31 3.69-11.97 4.13a1.48 1.44-23.5 0 1-1.16-.44q-1.45-1.49-2.6-1.55c-4.49-.21-9.8-1.09-11.79 2.79q-1.71 3.32.84 6.95.94 4.45 5.95 4.36 2.61-.05 5.3-.13a1.69 1.67-60.9 0 0 .75-.22l2.01-1.16a1.89 1.81-64.7 0 1 .55-.21l10.41-2.21a.33.33 0 0 1 .39.36q-.9 9.2-5.34 17.66Q81.6 85.65 70 85.08c-12.51-.62-22.2 7.73-23.03 20.15a.41.4-69.5 0 1-.65.3l-4.2-3.25q-2.47-10.1-2.65-22.03-.18-11.63.77-20.64a.2.19-74 0 0-.1-.19q-.17-.1-.36.04.85-.83.87-1.48.1-3.4.33-6.36 1.86-10.38 2.88-13.54.82-2.54 4.28-8.94 1.65-3.07 5.91-6.77C59.87 17.32 68.4 16.5 75.6 18q2.28.47 5.49 2.23 2.54 1.39 5.19 2.94m-20.908-2.986a1.8 1.07-21.7 0 0-2.068-.328 1.8 1.07-21.7 0 0-1.276 1.66 1.8 1.07-21.7 0 0 2.068.328 1.8 1.07-21.7 0 0 1.276-1.66m-5.593 2.073a3.13 1.68-30.8 0 0-3.55.16 3.13 1.68-30.8 0 0-1.828 3.046 3.13 1.68-30.8 0 0 3.55-.16 3.13 1.68-30.8 0 0 1.828-3.046M53.24 30.09c-1.26.39-3.41 1.46-3.75 2.99a1.02 1.02 0 0 0 1.54 1.07c.96-.62 1.98-1.42 2.94-1.71.93-.29 2.23-.2 3.37-.23a1.02 1.02 0 0 0 .67-1.75c-1.13-1.08-3.51-.76-4.77-.37m29.55 0c-1.27-.36-3.64-.64-4.75.45a1.01 1.01 0 0 0 .7 1.74c1.14 0 2.42-.11 3.38.17.94.27 1.97 1.04 2.94 1.64a1.01 1.01 0 0 0 1.51-1.1c-.36-1.51-2.52-2.54-3.78-2.9M55.255 37.4a6.11 4.64-89.2 0 0-4.724 6.045 6.11 4.64-89.2 0 0 4.554 6.174 6.11 4.64-89.2 0 0 4.724-6.044 6.11 4.64-89.2 0 0-4.554-6.174m25.667.04a6.09 4.64-89.6 0 0-4.682 6.058 6.09 4.64-89.6 0 0 4.598 6.122 6.09 4.64-89.6 0 0 4.682-6.058 6.09 4.64-89.6 0 0-4.597-6.122m-36.96 15.037A4.22 2.56-178.2 0 0 48.1 55.17a4.22 2.56-178.2 0 0 4.298-2.426 4.22 2.56-178.2 0 0-4.138-2.692 4.22 2.56-178.2 0 0-4.298 2.426m39.76.033a4.2 2.49-178.5 0 0 4.133 2.6 4.2 2.49-178.5 0 0 4.264-2.38 4.2 2.49-178.5 0 0-4.134-2.6 4.2 2.49-178.5 0 0-4.264 2.38M68.01 63.42q6.36-.01 11.71-4.07a1.05 1.05 0 0 1 1.04-.12q.86.37 1.05.32a1.17 1.17 0 0 0 .8-1.64q-1.14-2.39-3.39-3.04a.84.84 0 0 0-1.05.98l.21.98a.8.79-25.1 0 1-.29.79q-4.19 3.22-10.08 3.23t-10.09-3.19a.8.79 24.8 0 1-.3-.79l.21-.98a.84.84 0 0 0-1.06-.98q-2.24.66-3.37 3.06a1.17 1.17 0 0 0 .8 1.64q.19.04 1.05-.33a1.05 1.05 0 0 1 1.05.12q5.36 4.03 11.71 4.02"/><ellipse fill="#fb966b" rx="1.8" ry="1.07" transform="rotate(-21.7 86.242 -155.75)"/><ellipse fill="#fb966b" rx="3.13" ry="1.68" transform="rotate(-30.8 71.857 -91.702)"/><path fill="#da382b" d="M94.24 66.31q-.18-6.23.44-12.31c.3-3.01-1.18-5.67-1.32-7.63q-.17-2.45-.4-4.85a1.46.1 85.9 0 0-.02-.15l-2.69-12.66c2.56 3.49 5.41 11.48 5.08 15.53q-.24 3.05-.23 12.4a2.48 2.34 36.2 0 0 .16.86q.78 2.13 2.36 2.94a1.48 1.48 0 0 1 .5 2.21q-1.74 2.29-3.88 3.66"/><path fill="#510b09" d="M53.97 32.44c-.96.29-1.98 1.09-2.94 1.71a1.02 1.02 0 0 1-1.54-1.07c.34-1.53 2.49-2.6 3.75-2.99s3.64-.71 4.77.37a1.02 1.02 0 0 1-.67 1.75c-1.14.03-2.44-.06-3.37.23m28.82-2.35c1.26.36 3.42 1.39 3.78 2.9a1.01 1.01 0 0 1-1.51 1.1c-.97-.6-2-1.37-2.94-1.64-.96-.28-2.24-.17-3.38-.17a1.01 1.01 0 0 1-.7-1.74c1.11-1.09 3.48-.81 4.75-.45"/><path fill="#a5abae" d="m102.19 37.79-1.73-1.87a.74.73 45.3 0 0-1.06-.01q-.89.93-1.53.98-.35-2.4 1.13-3.27a2.01 2.01 0 0 1 2.69.63q.64.96.5 3.54m-64-.9q-.79-.27-1.64-.93a.73.73 0 0 0-.97.05l-.93.92a.39.39 0 0 1-.65-.16q-.17-.6-.08-1.26c.35-3.27 4.54-2.74 4.27 1.38"/><path fill="#595b63" d="M33.92 35.51q-.09.66.08 1.26a.39.39 0 0 0 .65.16l.93-.92a.73.73 0 0 1 .97-.05q.85.66 1.64.93l-.04 12.58c.25 2.14-2.46 3.34-4.24 2.27zm68.27 2.28-.09 14.43-4.16-1.19-.07-14.14q.64-.05 1.53-.98a.74.73 45.3 0 1 1.06.01z"/><path fill="#fb966b" d="M31.4 37.78q-3.89 1.34-5.48 5.89-.67-6.21 4.82-7.64.63-.17.66 1.75m78.6 5.9q-1.26-4.66-5.43-5.7.01-2.17.66-1.98 5.82 1.65 4.77 7.68"/><path fill="#fb582f" d="M31.35 50.51q.12.79-.03 1.24a.63.63 0 0 1-.9.36l-4.49-2.39-.01-6.05q1.59-4.55 5.48-5.89z"/><path fill="#510b09" d="M55.255 37.4a6.11 4.64-89.2 0 1 4.554 6.175 6.11 4.64-89.2 0 1-4.724 6.044 6.11 4.64-89.2 0 1-4.554-6.174 6.11 4.64-89.2 0 1 4.724-6.044m2.755 3.62a1.54 1.54 0 0 0-1.54-1.54 1.54 1.54 0 0 0-1.54 1.54 1.54 1.54 0 0 0 1.54 1.54 1.54 1.54 0 0 0 1.54-1.54m22.913-3.581a6.09 4.64-89.6 0 1 4.597 6.122 6.09 4.64-89.6 0 1-4.682 6.058 6.09 4.64-89.6 0 1-4.598-6.122 6.09 4.64-89.6 0 1 4.683-6.058m2.787 3.57a1.56 1.56 0 0 0-1.56-1.56 1.56 1.56 0 0 0-1.56 1.56 1.56 1.56 0 0 0 1.56 1.56 1.56 1.56 0 0 0 1.56-1.56"/><path fill="#fb582f" d="M104.57 37.98q4.17 1.04 5.43 5.7.48 1.84.1 4.8.17 1.34-1.48 2.19-1.47.75-4 1.44z"/><circle cx="56.47" cy="41.02" r="1.54" fill="#a5abae"/><circle cx="82.15" cy="41.01" r="1.56" fill="#a5abae"/><path fill="#da382b" d="M110.1 48.48q.77 6.01-4.86 7.46a.5.5 0 0 1-.62-.48v-3.35q2.53-.69 4-1.44 1.65-.85 1.48-2.19"/><path fill="#41454e" d="m38.15 49.47-.04 7.07a2 1.93 1.6 0 1-2.09 1.91h-.12a2.08 2.07-88.9 0 1-1.99-2.08v-4.63c1.78 1.07 4.49-.13 4.24-2.27"/><path fill="#da382b" d="m31.35 50.51-.03 4.33a.99.99 0 0 1-1.46.86q-4.24-2.3-3.93-5.98l4.49 2.39a.63.63 0 0 0 .9-.36q.15-.45.03-1.24"/><ellipse fill="#fe8359" rx="4.22" ry="2.56" transform="rotate(181.8 24.503 25.927)"/><ellipse fill="#fe8359" rx="4.2" ry="2.49" transform="rotate(181.5 44.304 25.735)"/><path fill="#41454e" d="M102.1 52.22c.07 1.7.46 5.08-1.26 6.03a1.82 1.81-19.8 0 1-2.65-1.24q-.53-2.7-.25-5.98z"/><path fill="#510b09" d="M68.01 60.85q5.89-.01 10.08-3.23a.8.79-25.1 0 0 .29-.79l-.21-.98a.84.84 0 0 1 1.05-.98q2.25.65 3.39 3.04a1.17 1.17 0 0 1-.8 1.64q-.19.05-1.05-.32a1.05 1.05 0 0 0-1.04.12q-5.35 4.06-11.71 4.07-6.35.01-11.71-4.02a1.05 1.05 0 0 0-1.05-.12q-.86.37-1.05.33a1.17 1.17 0 0 1-.8-1.64q1.13-2.4 3.37-3.06a.84.84 0 0 1 1.06.98l-.21.98a.8.79 24.8 0 0 .3.79q4.2 3.2 10.09 3.19"/><path fill="#a5abae" d="M104.47 58.81a.44.43-3.1 0 1 .62.55Q98.64 73.13 82.8 74.6a.11.11 0 0 1-.12-.1l-.14-1.39a.34.34 0 0 1 .31-.37q13.02-1.12 19.56-12 .67-1.11 2.06-1.93"/><path fill="#fb966b" d="M39.78 59.46q.19-.14.36-.04a.2.19-74 0 1 .1.19q-.95 9.01-.77 20.64.18 11.93 2.65 22.03-1.9-.46-2.15-1.52c-3.01-12.8-3.04-26.13-2.31-39.27a1.06 1.04 74.1 0 1 .43-.79z"/><path fill="#a5abae" d="M79.55 72q.22.35-.21.43a.45.42 46.8 0 1-.16-.01q-5.78-1.85-10.35.88c-.11-3.32 5.38-2.62 7.92-2.59q1.9.02 2.8 1.29"/><path fill="#595b63" d="m79.55 72 .35.83q-4.2 3.61-11.44.93.08.6.37-.46 4.57-2.73 10.35-.88a.45.42 46.8 0 0 .16.01q.43-.08.21-.43"/><path fill="#da382b" d="M87.58 96.64q4.44-8.46 5.34-17.66a.33.33 0 0 0-.39-.36l-10.41 2.21a1.89 1.81-64.7 0 0-.55.21l-2.01 1.16a1.69 1.67-60.9 0 1-.75.22q-2.69.08-5.3.13-5.01.09-5.95-4.36 4.94 2.42 10.88 1.23 1.53-.3 2.95-1.83a1.45 1.42 19.2 0 1 .94-.44q8.82-.58 15.91-5.37a.34.34 0 0 1 .53.28Q99 84 97.25 95.76q-.28 1.87-1.17 4.9a1.35 1.35 0 0 1-.55.74l-4.87 3.22a.53.53 0 0 1-.8-.29z"/><path fill="#41454e" d="M68.46 73.76q7.24 2.68 11.44-.93 1.04 2.95-2.02 4.38a2.18 2.03-55.6 0 1-.89.2q-4.85.04-6.26-.27-2.19-.5-2.27-3.38"/><path fill="#da382b" d="M104.47 73.93q-.42.57.07 1.44c-1.52 3.47 1.97 5.02 4.25 6.68l-1.75 3.15a.46.46 0 0 1-.7.13l-4.28-3.55a1.15 1.13-70.5 0 1-.41-.88v-6.84a.66.66 0 0 1 .69-.66q1.14.05 2.13.53m-77.56 7.72q2.13-.8 4.27-2.48 2.43-1.9.6-3.72.6-1.24.19-1.67.93-.35 1.77-.23a.7.69-85.7 0 1 .59.69v6.82a.22.18-28.8 0 1-.05.13l-4.24 4.24a.56.56 0 0 1-.87-.1z"/><path fill="#fb966b" d="M31.97 73.78q.41.43-.19 1.67l-8.76 3.5-2.43-.32a.36.36 0 0 1-.14-.66q5.3-3.25 11.52-4.19m80.98 5.11-8.41-3.52q-.49-.87-.07-1.44 6.07.84 11.12 4.1a.32.32 0 0 1-.14.58z"/><path fill="#fb582f" d="M31.78 75.45q1.83 1.82-.6 3.72-2.14 1.68-4.27 2.48l-3.89-2.7zm81.17 3.44-4.16 3.16c-2.28-1.66-5.77-3.21-4.25-6.68z"/><path fill="#fb966b" d="M20.96 81.68q-6.16 3.75-8.12 9.26l-2.24 1.25a.31.31 0 0 1-.44-.38c1.51-4.07 5.67-10.68 10.8-10.13"/><path fill="#fb582f" d="M25.31 84.51q-1.85 2.31-1.78 5.03-5.17-.41-10.69 1.4 1.96-5.51 8.12-9.26 2.13-.2 4.35 2.83"/><path fill="#fb966b" d="M122.04 90.6q.36-1.84-1.36-3.79-3.07-3.49-6.23-5c5.31-1.4 9.53 5.41 11.31 9.68a.34.33 89.5 0 1-.43.44z"/><path fill="#fb582f" d="M114.45 81.81q3.16 1.51 6.23 5 1.72 1.95 1.36 3.79-4.31-1.39-8.74-1.02l-1.86-5.86q1.43-1.85 3.01-1.91"/><path fill="#da382b" d="m111.44 83.72 1.86 5.86-3.93.53a.45.44 87.3 0 1-.5-.46q.13-3.31 2.57-5.93m-87.91 5.82q-.07-2.72 1.78-5.03 1.68 2.42 2.01 5.35a.37.37 0 0 1-.45.4z"/><path fill="#fe8359" d="M68.43 87.23c6.69.01 12.26 2.96 15.92 8.62a.37.36 63.6 0 1-.18.55q-7.2 2.67-15.74 2.66-8.55-.01-15.74-2.69a.37.36-63.5 0 1-.18-.54c3.67-5.66 9.24-8.6 15.92-8.6"/><path fill="#fb966b" d="M33.64 98.24q-10.67-7.13-20.51-.9c-2.67 1.69-3.24 3.37-5.23 6.05a3.02 2.97 72.8 0 0-.43.83q-3.83 11.39 1.36 21.79a3.04 2.96-80.3 0 0 .51.74q2.39 2.6 3.33 5.66-8.02-7.87-9.14-18.93c-1.27-12.54 6.94-21.89 19.48-21q6.2.43 10.63 5.76m88.09-4.36q-11.21-.66-17.26 5.85-.74.8-2.33 3.77l-1.3-1.72a.93.91-55.7 0 1-.15-.85q.78-2.51 2.79-4.21 8.06-6.81 18.25-2.84"/><path fill="#fb582f" d="M126.45 96.35q.17 1.96 1.19 6.83 1.77 8.42-3.08 17.14-8.89 16.01-27.89 17.26a3.15 3.06 28.8 0 0-1.24.34q-1.9 1-2.4.08 2.83-2.36 5.44-4.53 8.69-7.24 8.41-17.96-.17-6.62-4.74-12.01 1.59-2.97 2.33-3.77 6.05-6.51 17.26-5.85 1.52.06 4.72 2.47m-9.735 2.89a3.86 2.66-17.8 0 0-4.488-1.353 3.86 2.66-17.8 0 0-2.862 3.713 3.86 2.66-17.8 0 0 4.488 1.353 3.86 2.66-17.8 0 0 2.862-3.713m2.645-.12q-.5.57-.23 1.4a.79.76-36.5 0 0 1.38.18q.66-.9.1-1.5a.9.79 44.9 0 0-1.25-.08m-85.72-.88q1.46.79 1.76 2.91a1.1 1.06 63 0 1-.27.88c-11.39 12.36-5.39 27.58 7.52 35.43a1.53 1.34 36.3 0 1 .48 2.17q-.85.94-2.39 1.18-7.71 1.18-15.28-1.04-7.82-2.29-12.79-7.36-.94-3.06-3.33-5.66a3.04 2.96-80.3 0 1-.51-.74q-5.19-10.4-1.36-21.79a3.02 2.97 72.8 0 1 .43-.83c1.99-2.68 2.56-4.36 5.23-6.05q9.84-6.23 20.51.9m-22.15 15.48 2.38-10.06a.54.54 0 0 0-.4-.65l-.5-.12a3.87 2.77-76.7 0 0-3.59 3.13l-.84 3.58a3.87 2.77-76.7 0 0 1.8 4.4l.5.12a.54.54 0 0 0 .65-.4m-.74 2.65a1.8 1.27-107.1 0 0-.684 2.093 1.8 1.27-107.1 0 0 1.743 1.347 1.8 1.27-107.1 0 0 .685-2.093 1.8 1.27-107.1 0 0-1.743-1.347"/><path fill="#da382b" d="M93.03 138q.5.92 2.4-.08a3.15 3.06 28.8 0 1 1.24-.34q19-1.25 27.89-17.26 4.85-8.72 3.08-17.14-1.02-4.87-1.19-6.83 7.18 6.79 5.93 17.68c-2.09 18.18-18.42 29.24-36.17 26.91q-1.59-.21-2.97-1.22-.47-.33-.49-.78-.04-.52.28-.94"/><ellipse fill="#fb966b" rx="3.86" ry="2.66" transform="rotate(-17.8 377.154 -310.72)"/><path fill="#fe8359" d="m86.35 100.19-.92.17a.94.93 6.9 0 0-.67.52c-1.61 3.56-4.24 5.25-7.82 7.78a.25.24 31.3 0 0 .11.44q.68.1 1.4-.06c-9.99 1.3-18.99 1.11-28.41-2.83a1.27 1.26-72.2 0 1-.74-1.45l1.33-5.65a.96.96 0 0 1 1.26-.68q16.5 5.93 33.22-.01a.77.76-27 0 1 .88.28q.38.52.36 1.49m33.01-1.07a.9.79 44.9 0 1 1.25.08q.56.6-.1 1.5a.79.76-36.5 0 1-1.38-.18q-.27-.83.23-1.4"/><path fill="#fb582f" d="M86.35 100.19q1.26 2.65 1.1 5.3a.76.76 0 0 1-.52.68l-8.48 2.87q-.72.16-1.4.06a.25.24 31.3 0 1-.11-.44c3.58-2.53 6.21-4.22 7.82-7.78a.94.93 6.9 0 1 .67-.52z"/><path fill="#fb966b" d="M11.49 113.72a.54.54 0 0 1-.65.4l-.5-.12a3.87 2.77-76.7 0 1-1.8-4.4l.84-3.58a3.87 2.77-76.7 0 1 3.59-3.13l.5.12a.54.54 0 0 1 .4.65zm88.27-8.43q-4.83 1.6-7.5 4.72-4.2 4.9-6.59 13.11.03-13.47 12-19.39a.94.94 0 0 1 .95.08q.55.4 1.14 1.48m-49.18 18.36-2.64-7.25a7.36 7.23 19.3 0 0-.73-1.48l-2.61-4.04a2.73 2.51 8.9 0 0-.27-.34q-3.28-3.4-7.88-5.48.87-1.59 1.7-1.2 12.27 5.85 12.43 19.79"/><path fill="#fb582f" d="M36.45 105.06q4.6 2.08 7.88 5.48a2.73 2.51 8.9 0 1 .27.34l2.61 4.04a7.36 7.23 19.3 0 1 .73 1.48l2.64 7.25q.1 2.51-.85 4.94a.87.87 0 0 1-1.56.12l-2.43-4.21q-2.37-9.51-13.1-12.82 1.52-3.94 3.81-6.62m66.63 6.15q-6.43 3.17-10.86 8.23a4.17 4.14-13.8 0 0-.72 1.18l-2.12 5.2-1.33 2.7a1.03 1.02 49.4 0 1-1.9-.15q-1.12-3.54-.48-5.25 2.39-8.21 6.59-13.11 2.67-3.12 7.5-4.72 1.69 1.67 3.32 5.92m-35.12.93c6.11.05 12.83-.96 18.6-3.53a.34.34 0 0 1 .4.51q-2.02 2.56-3.26 6.1a1.56 1.56 0 0 1-.91.94q-7.5 2.81-14.9 2.74t-14.84-3.03a1.56 1.56 0 0 1-.89-.96q-1.18-3.56-3.15-6.16a.34.34 0 0 1 .42-.5c5.71 2.68 12.42 3.83 18.53 3.89"/><path fill="#da382b" d="m89.38 125.82 2.12-5.2a4.17 4.14-13.8 0 1 .72-1.18q4.43-5.06 10.86-8.23.71 1.43.78 5.01a.88.87-6.2 0 1-.71.88q-3.5.71-6.78 2.58c-2.62 1.49-4.74 3.9-6.99 6.14m-43.64-1.32q-5.91-6.1-13.18-7.45a.57.56-81.2 0 1-.45-.62l.53-4.75q10.73 3.31 13.1 12.82"/><ellipse fill="#fb966b" rx="1.8" ry="1.27" transform="rotate(252.9 49.251 54.88)"/></svg>